<svg xmlns="http://www.w3.org/2000/svg" xmlns:xlink="http://www.w3.org/1999/xlink" width="229" height="48" viewBox="0 0 229 48"><defs><linearGradient id="a" x1="0.066" x2="0.929" gradientUnits="objectBoundingBox"><stop offset="0" stop-color="#ffb957"/><stop offset="0.507" stop-color="#e090cf"/><stop offset="1" stop-color="#5d82fa"/></linearGradient><clipPath id="c"><rect width="229" height="48"/></clipPath></defs><g id="b" clip-path="url(#c)"><path d="M173.254-348.333l0-.007a74.443,74.443,0,0,1-14.322-17.106c-5.544-9.642-7.855-21.464-7.855-21.464l16.108,9.4a15.092,15.092,0,0,1,4.615,4.952,17.592,17.592,0,0,1,1.432,7.081c0,.015,0,.026,0,.035l.025,17.1Zm2.077,0V-365.48c.072-1.382.354-4.99,1.426-7.075a15.622,15.622,0,0,1,4.859-5.073l15.893-9.28a81.041,81.041,0,0,1-7.883,20.45C184.082-356.815,175.331-348.336,175.331-348.336Zm-1-29.119h-.121c-3.033,0-6.7-2.341-6.772-2.314l-14.226-8.3a145.869,145.869,0,0,1,21-1.747,149.783,149.783,0,0,1,21.168,1.747l-14.151,8.255C180.558-379.44,177.177-377.515,174.329-377.455Z" transform="translate(-148.291 393.201)" fill="url(#a)"/><path d="M10.854-20.67q3.637,0,5.4,1.633t1.763,5.214V0H15.771l-.594-3.006h-.148a10.972,10.972,0,0,1-1.781,1.865A6.407,6.407,0,0,1,11.1-.009a10.078,10.078,0,0,1-2.978.38A7.924,7.924,0,0,1,4.833-.278,5.077,5.077,0,0,1,2.57-2.245a6.188,6.188,0,0,1-.826-3.34,5.308,5.308,0,0,1,2.412-4.676q2.412-1.633,7.348-1.781l3.507-.148v-1.243q0-2.635-1.132-3.692a4.5,4.5,0,0,0-3.191-1.058,9.909,9.909,0,0,0-3.043.464A20.822,20.822,0,0,0,4.9-16.625l-.946-2.338a16.956,16.956,0,0,1,3.154-1.206A13.781,13.781,0,0,1,10.854-20.67Zm4.119,10.65-3.1.13q-3.8.148-5.362,1.243a3.565,3.565,0,0,0-1.559,3.1A3.085,3.085,0,0,0,6.012-2.969a4.393,4.393,0,0,0,2.8.835,6.507,6.507,0,0,0,4.435-1.5,5.659,5.659,0,0,0,1.726-4.509ZM27.442-20.336V0h-3.08V-20.336Zm-1.5-7.607a1.891,1.891,0,0,1,1.308.492,1.958,1.958,0,0,1,.547,1.531,1.963,1.963,0,0,1-.547,1.521,1.871,1.871,0,0,1-1.308.5,1.853,1.853,0,0,1-1.327-.5,2,2,0,0,1-.529-1.521,2,2,0,0,1,.529-1.531A1.873,1.873,0,0,1,25.939-27.943ZM40.523-2.152a9.693,9.693,0,0,0,1.559-.13,7.134,7.134,0,0,0,1.3-.315V-.2A6.522,6.522,0,0,1,41.887.2a10.823,10.823,0,0,1-1.865.167,7.354,7.354,0,0,1-2.932-.566,4.44,4.44,0,0,1-2.106-1.92A7.476,7.476,0,0,1,34.2-5.863V-17.924H31.3v-1.5l2.913-1.206,1.225-4.416h1.855v4.713h5.956v2.412H37.295V-5.956A4.064,4.064,0,0,0,38.176-3.1,3.055,3.055,0,0,0,40.523-2.152ZM53.89,0,46.153-20.169h1.985L53.315-6.42q.482,1.243.863,2.384t.64,2.069h.093q.3-.928.677-2.078t.844-2.375l5.177-13.749h2L55.857,0ZM70.727-20.169V0H68.853V-20.169Zm-.909-7.459a1.251,1.251,0,0,1,1.039.417,1.746,1.746,0,0,1,.334,1.123,1.707,1.707,0,0,1-.334,1.113,1.265,1.265,0,0,1-1.039.408,1.219,1.219,0,0,1-1-.408,1.707,1.707,0,0,1-.334-1.113,1.746,1.746,0,0,1,.334-1.123A1.206,1.206,0,0,1,69.818-27.628Zm15.271,7.069a7.29,7.29,0,0,1,4.3,1.206,7.223,7.223,0,0,1,2.561,3.3,12.788,12.788,0,0,1,.844,4.806V-9.89H78.223a9.493,9.493,0,0,0,1.92,6.383,6.87,6.87,0,0,0,5.5,2.227A15.214,15.214,0,0,0,88.9-1.586a16.745,16.745,0,0,0,3.071-1.048V-.909A14.237,14.237,0,0,1,89,.065a17.024,17.024,0,0,1-3.414.306A9.635,9.635,0,0,1,80.459-.9a7.934,7.934,0,0,1-3.117-3.59,13.048,13.048,0,0,1-1.048-5.418A13.941,13.941,0,0,1,77.3-15.345a8.7,8.7,0,0,1,2.969-3.813A8.058,8.058,0,0,1,85.088-20.559Zm-.019,1.614a6.108,6.108,0,0,0-4.685,1.92,9.037,9.037,0,0,0-2.106,5.539H90.84a11.1,11.1,0,0,0-.631-3.9,5.591,5.591,0,0,0-1.9-2.625A5.314,5.314,0,0,0,85.07-18.944ZM114.442,0l-4.286-13.545q-.2-.612-.371-1.169t-.315-1.076q-.148-.52-.278-1.011t-.26-.974h-.093q-.13.482-.26.983t-.278,1.039q-.148.538-.315,1.095t-.371,1.15L103.179,0h-1.93L95.516-20.169H97.5l3.544,12.9q.315,1.132.538,2.022t.39,1.614q.167.724.3,1.373h.093q.111-.464.241-.974t.278-1.1q.148-.594.353-1.262t.445-1.447L108-20.169h1.855l4.156,13.081q.3.946.547,1.809t.445,1.6q.195.742.325,1.392h.111q.074-.612.232-1.345t.39-1.642q.232-.909.529-2l3.414-12.9H121.9L116.427,0Zm18.981-20.559a7.29,7.29,0,0,1,4.3,1.206,7.223,7.223,0,0,1,2.561,3.3,12.788,12.788,0,0,1,.844,4.806V-9.89H126.558a9.493,9.493,0,0,0,1.92,6.383,6.87,6.87,0,0,0,5.5,2.227,15.215,15.215,0,0,0,3.256-.306,16.745,16.745,0,0,0,3.071-1.048V-.909a14.237,14.237,0,0,1-2.969.974,17.024,17.024,0,0,1-3.414.306A9.635,9.635,0,0,1,128.794-.9a7.934,7.934,0,0,1-3.117-3.59,13.048,13.048,0,0,1-1.048-5.418,13.941,13.941,0,0,1,1.011-5.437,8.7,8.7,0,0,1,2.969-3.813A8.058,8.058,0,0,1,133.423-20.559Zm-.019,1.614a6.108,6.108,0,0,0-4.685,1.92,9.037,9.037,0,0,0-2.106,5.539h12.562a11.1,11.1,0,0,0-.631-3.9,5.591,5.591,0,0,0-1.9-2.625A5.314,5.314,0,0,0,133.4-18.944Zm21.282-1.577a11.534,11.534,0,0,1,1.5.093,9.936,9.936,0,0,1,1.317.26l-.3,1.726a9.413,9.413,0,0,0-1.243-.25,10.341,10.341,0,0,0-1.354-.083,5.831,5.831,0,0,0-2.551.538,5.266,5.266,0,0,0-1.9,1.54,7.1,7.1,0,0,0-1.187,2.412,11.332,11.332,0,0,0-.408,3.154V0h-1.893V-20.169h1.614l.186,3.8h.111a6.954,6.954,0,0,1,1.308-2.106,6.245,6.245,0,0,1,2.05-1.494A6.482,6.482,0,0,1,154.687-20.521Z" transform="translate(55 36)" fill="#3d464b"/></g></svg>