<svg xmlns="http://www.w3.org/2000/svg" xmlns:xlink="http://www.w3.org/1999/xlink" width="48" height="41" viewBox="0 0 48 41">
  <defs>
    <linearGradient id="linear-gradient" x1="0.066" x2="0.929" gradientUnits="objectBoundingBox">
      <stop offset="0" stop-color="#ffb957"/>
      <stop offset="0.512" stop-color="#e26bcd"/>
      <stop offset="1" stop-color="#5167f3"/>
    </linearGradient>
    <clipPath id="clip-aitv-logo">
      <rect width="48" height="41"/>
    </clipPath>
  </defs>
  <g id="aitv-logo" clip-path="url(#clip-aitv-logo)">
    <path id="Path_34" data-name="Path 34" d="M174-346.995l0-.007L151.073-386.87l16.65,9.713a15.6,15.6,0,0,1,4.771,5.118,18.185,18.185,0,0,1,1.48,7.319c0,.015,0,.027,0,.036L174-347Zm2.147,0v-18.732a16.564,16.564,0,0,1,1.474-6.3,16.147,16.147,0,0,1,5.023-5.243l16.428-9.592Zm-1.036-30.1h-.126c-3.135,0-6.928-2.42-7-2.392l-14.705-8.579h43.587l-14.628,8.532C181.551-379.149,178.056-377.16,175.112-377.1Z" transform="translate(-151.073 388.068)" fill="url(#linear-gradient)"/>
  </g>
</svg>
